<?xml version="1.0" encoding="UTF-8" standalone="no"?>
<!-- Generator: Adobe Illustrator 16.0.0, SVG Export Plug-In . SVG Version: 6.00 Build 0)  -->

<svg
   xmlns:dc="http://purl.org/dc/elements/1.1/"
   xmlns:cc="http://creativecommons.org/ns#"
   xmlns:rdf="http://www.w3.org/1999/02/22-rdf-syntax-ns#"
   xmlns:svg="http://www.w3.org/2000/svg"
   xmlns="http://www.w3.org/2000/svg"
   xmlns:sodipodi="http://sodipodi.sourceforge.net/DTD/sodipodi-0.dtd"
   xmlns:inkscape="http://www.inkscape.org/namespaces/inkscape"
   version="1.1"
   id="Layer_1"
   x="0px"
   y="0px"
   width="550"
   height="550"
   viewBox="0 0 550 550"
   enable-background="new 0 0 1000 1000"
   xml:space="preserve"
   inkscape:version="0.48.4 r9939"
   sodipodi:docname="GRS-testnet-logo-550x550.svg"><metadata
   id="metadata30"><rdf:RDF><cc:Work
       rdf:about=""><dc:format>image/svg+xml</dc:format><dc:type
         rdf:resource="http://purl.org/dc/dcmitype/StillImage" /><dc:title></dc:title></cc:Work></rdf:RDF></metadata><defs
   id="defs28" /><sodipodi:namedview
   pagecolor="#ffffff"
   bordercolor="#666666"
   borderopacity="1"
   objecttolerance="10"
   gridtolerance="10"
   guidetolerance="10"
   inkscape:pageopacity="0"
   inkscape:pageshadow="2"
   inkscape:window-width="1033"
   inkscape:window-height="821"
   id="namedview26"
   showgrid="false"
   inkscape:zoom="0.236"
   inkscape:cx="-6.3559322"
   inkscape:cy="500"
   inkscape:window-x="0"
   inkscape:window-y="0"
   inkscape:window-maximized="0"
   inkscape:current-layer="Layer_1" />
<linearGradient
   id="SVGID_1_"
   gradientUnits="userSpaceOnUse"
   x1="132.7876"
   y1="867.21387"
   x2="867.21399"
   y2="132.78748">
	<stop
   offset="0.0945451"
   style="stop-color:#000229"
   id="stop4" />
	<stop
   offset="0.2100622"
   style="stop-color:#000832"
   id="stop6" />
	<stop
   offset="0.3957825"
   style="stop-color:#021749"
   id="stop8" />
	<stop
   offset="0.6272703"
   style="stop-color:#03306F"
   id="stop10" />
	<stop
   offset="0.700389"
   style="stop-color:#04397D"
   id="stop12" />
	<stop
   offset="1"
   style="stop-color:#095A9B"
   id="stop14" />
</linearGradient>
<path
   d="m 525,468.48894 c 0,10.17713 -8.25039,18.42752 -18.42752,18.42752 H 43.42752 C 33.25039,486.91646 25,478.66607 25,468.48894 V 81.511057 C 25,71.333931 33.25039,63.083538 43.42752,63.083538 H 506.57248 C 516.74961,63.083538 525,71.333931 525,81.511057 V 468.48894 z"
   id="path16"
   inkscape:connector-curvature="0"
   style="fill:url(#SVGID_1_)" />
<g
   id="g18"
   transform="matrix(0.61425061,0,0,0.61425061,-32.125305,-32.125311)">
	<path
   d="m 387.83594,453.19531 54.16504,91.43946 89.81152,0.0586 v 123.0293 H 430.90625 c -45.45801,0 -83.43945,-4.71875 -113.81738,-47.35547 -20.20996,-28.36328 -24.47754,-56.54297 -26.62207,-99.36328 -0.19825,-4.01563 -0.56446,-23.42774 -0.56446,-23.50977 0.008,-54.50195 12.22754,-96.05762 33.56446,-123.49023 24.5,-31.5 64.45703,-45.625 107.43945,-45.625 H 572.9043 l 56.49609,-89.71289 H 430.90625 c -91.89063,0 -157.35449,30.20703 -196.36719,86.18554 -30.14453,43.10352 -45.2041,105.88477 -45.2041,186.12696 0,1.7832 0.0576,4.08007 0.0762,5.84765 0.002,0 0.004,0 0.006,0 0.86133,73.50391 17.8418,131.56836 51.04981,173.0586 25.68066,31.71679 60.01562,53.07031 102.99804,63.96875 19.75391,4.95507 46.42481,7.48046 80.02832,7.48046 H 630.82617 V 453.19531 H 387.83594 z"
   id="path20"
   inkscape:connector-curvature="0"
   style="fill:#ffffff" />
	<g
   id="g22">
		<path
   d="m 810.66504,711.35547 v 49.97851 H 653.93066 V 748.50781 C 738.7207,648.50195 750.39844,632.3418 750.39844,614.25 c 0,-11.42773 -7.5293,-19.08984 -18.32227,-19.08984 -11.8291,0 -19.04199,7.97851 -19.04199,20.66406 v 4.07226 H 657.32812 V 616 c 0,-42.61133 27.92774,-70.77539 74.06641,-70.77539 44.70117,0 75.56543,27.48437 75.56543,67.04687 0,26.51758 -9.81055,46.875 -54.88183,99.08399 h 58.58691 z"
   id="path24"
   inkscape:connector-curvature="0"
   style="fill:#ffffff" />
	</g>
</g>
</svg>