<?xml version="1.0" encoding="UTF-8" standalone="no"?>
<svg
   xmlns:dc="http://purl.org/dc/elements/1.1/"
   xmlns:cc="http://creativecommons.org/ns#"
   xmlns:rdf="http://www.w3.org/1999/02/22-rdf-syntax-ns#"
   xmlns:svg="http://www.w3.org/2000/svg"
   xmlns="http://www.w3.org/2000/svg"
   xmlns:sodipodi="http://sodipodi.sourceforge.net/DTD/sodipodi-0.dtd"
   xmlns:inkscape="http://www.inkscape.org/namespaces/inkscape"
   version="1.1"
   width="108px"
   height="108px"
   viewBox="-0.015 -0.015 1.03 1.03"
   preserveAspectRatio="xMidYMid"
   id="svg18"
   sodipodi:docname="ic_app_color_fg_108dp-mdpi.svg"
   inkscape:version="0.92.3 (2405546, 2018-03-11)">
  <metadata
     id="metadata22">
    <rdf:RDF>
      <cc:Work
         rdf:about="">
        <dc:format>image/svg+xml</dc:format>
        <dc:type
           rdf:resource="http://purl.org/dc/dcmitype/StillImage" />
      </cc:Work>
    </rdf:RDF>
  </metadata>
  <sodipodi:namedview
     pagecolor="#ffffff"
     bordercolor="#666666"
     borderopacity="1"
     objecttolerance="10"
     gridtolerance="10"
     guidetolerance="10"
     inkscape:pageopacity="0"
     inkscape:pageshadow="2"
     inkscape:window-width="1920"
     inkscape:window-height="1001"
     id="namedview20"
     showgrid="false"
     inkscape:zoom="2.1851852"
     inkscape:cx="54"
     inkscape:cy="54"
     inkscape:window-x="-9"
     inkscape:window-y="-9"
     inkscape:window-maximized="1"
     inkscape:current-layer="svg18" />
  <defs
     id="defs11">
    <filter
       id="symbol-shadow">
      <feGaussianBlur
         in="SourceAlpha"
         result="blur-out"
         stdDeviation="1.3"
         id="feGaussianBlur2" />
      <feMerge
         id="feMerge8">
        <feMergeNode
           id="feMergeNode4" />
        <feMergeNode
           in="SourceGraphic"
           id="feMergeNode6" />
      </feMerge>
    </filter>
  </defs>
  <g
     id="g18"
     transform="matrix(8.0820359e-4,0,0,8.0820359e-4,0.09589821,0.0958982)"
     style="stroke:#000000;stroke-opacity:1">
    <path
       d="m 387.83594,453.19531 54.16504,91.43946 89.81152,0.0586 v 123.0293 H 430.90625 c -45.45801,0 -83.43945,-4.71875 -113.81738,-47.35547 -20.20996,-28.36328 -24.47754,-56.54297 -26.62207,-99.36328 -0.19825,-4.01563 -0.56446,-23.42774 -0.56446,-23.50977 0.008,-54.50195 12.22754,-96.05762 33.56446,-123.49023 24.5,-31.5 64.45703,-45.625 107.43945,-45.625 H 572.9043 l 56.49609,-89.71289 H 430.90625 c -91.89063,0 -157.35449,30.20703 -196.36719,86.18554 -30.14453,43.10352 -45.2041,105.88477 -45.2041,186.12696 0,1.7832 0.0576,4.08007 0.0762,5.84765 0.002,0 0.004,0 0.006,0 0.86133,73.50391 17.8418,131.56836 51.04981,173.0586 25.68066,31.71679 60.01562,53.07031 102.99804,63.96875 19.75391,4.95507 46.42481,7.48046 80.02832,7.48046 H 630.82617 V 453.19531 Z"
       id="path20"
       inkscape:connector-curvature="0"
       style="fill:#ffffff;stroke:#000000;stroke-opacity:1" />
    <g
       id="g22"
       style="stroke:#000000;stroke-opacity:1">
      <path
         d="m 810.66504,711.35547 v 49.97851 H 653.93066 V 748.50781 C 738.7207,648.50195 750.39844,632.3418 750.39844,614.25 c 0,-11.42773 -7.5293,-19.08984 -18.32227,-19.08984 -11.8291,0 -19.04199,7.97851 -19.04199,20.66406 v 4.07226 H 657.32812 V 616 c 0,-42.61133 27.92774,-70.77539 74.06641,-70.77539 44.70117,0 75.56543,27.48437 75.56543,67.04687 0,26.51758 -9.81055,46.875 -54.88183,99.08399 z"
         id="path24"
         inkscape:connector-curvature="0"
         style="fill:#ffffff;stroke:#000000;stroke-opacity:1" />
    </g>
  </g>
</svg>
