<?xml version="1.0" encoding="utf-8"?>
<!-- Generator: Adobe Illustrator 16.0.0, SVG Export Plug-In . SVG Version: 6.00 Build 0)  -->
<!DOCTYPE svg PUBLIC "-//W3C//DTD SVG 1.1//EN" "http://www.w3.org/Graphics/SVG/1.1/DTD/svg11.dtd">
<svg version="1.1" id="Layer_1" xmlns="http://www.w3.org/2000/svg" xmlns:xlink="http://www.w3.org/1999/xlink" x="0px" y="0px"
	 width="48px" height="48px" viewBox="-2 -2 48 48" enable-background="new -2 -2 48 48" xml:space="preserve">
<g>
	<path fill="#85A4AF" d="M46,22c0,13.256-10.744,24-24,24C8.745,46-2,35.256-2,22C-2,8.745,8.745-2,22-2C35.256-2,46,8.745,46,22z"
		/>
	<circle fill="#6590A2" cx="22" cy="22" r="22.472"/>
	<path fill="#FFFFFF" d="M35.773,13.739h-0.393c-0.184,0.317-0.4,0.563-0.646,0.737c-0.25,0.175-0.527,0.291-0.835,0.347
		c-0.308,0.057-0.844,0.083-1.608,0.083h-3.703l-0.023-0.029c0.453-0.423,1.538-1.571,3.266-3.452
		c1.175-1.282,2.025-2.498,2.549-3.645c0.34-0.731,0.512-1.46,0.512-2.19c0-1.021-0.391-1.906-1.174-2.658
		c-0.781-0.75-1.759-1.127-2.927-1.127c-1.099,0-2.013,0.352-2.744,1.053c-0.733,0.702-1.188,1.71-1.366,3.02h0.393
		c0.271-0.799,0.684-1.406,1.246-1.819c0.563-0.414,1.197-0.622,1.904-0.622c0.777,0,1.447,0.295,2.006,0.881
		c0.56,0.588,0.838,1.338,0.838,2.252c0,1.195-0.51,2.52-1.528,3.964c-0.748,1.063-1.9,2.355-3.452,3.87
		c-1.76-1.113-3.825-1.674-6.201-1.674c-2.998,0-5.458,0.92-7.38,2.758s-2.881,4.031-2.881,6.582c0,1.668,0.421,3.191,1.263,4.57
		c0.842,1.377,2.049,2.451,3.621,3.22c-1.928,1.614-3.158,2.862-3.69,3.743c-0.534,0.883-0.8,1.65-0.8,2.307
		c0,0.583,0.199,1.104,0.605,1.563c0.4,0.459,1.09,0.98,2.063,1.564c-1.785,1.848-2.743,2.859-2.875,3.025
		c-0.347,0.432-0.653,0.83-0.919,1.195c0.861,0.454,1.752,0.854,2.672,1.201c-0.013-0.094-0.021-0.188-0.021-0.283
		c0-0.688,0.225-1.443,0.677-2.262c0.455-0.818,1.123-1.703,2.009-2.652c2.269,0.322,5.509,0.541,9.725,0.656
		c2.887,0.075,4.815,0.314,5.789,0.726c0.959,0.409,1.435,1.096,1.435,2.063c0,0.198-0.02,0.396-0.055,0.59
		c0.72-0.376,1.417-0.785,2.092-1.229c0.008-0.146,0.016-0.297,0.016-0.445c0-1.533-0.523-2.823-1.563-3.87
		c-1.041-1.046-2.431-1.69-4.176-1.935c-1.144-0.186-3.646-0.33-7.508-0.436c-2.1-0.063-3.413-0.135-3.938-0.22
		c-0.899-0.128-1.504-0.341-1.813-0.636c-0.311-0.299-0.466-0.605-0.466-0.923c0-0.372,0.148-0.821,0.438-1.35
		c0.291-0.526,0.851-1.145,1.677-1.85c1.327,0.378,2.628,0.571,3.901,0.571c3.086,0,5.545-0.855,7.379-2.565
		c1.834-1.711,2.752-3.768,2.752-6.172c0-1.918-0.441-3.521-1.311-4.815h3.898L35.773,13.739z M25.611,27.977
		c-0.914,1.064-2.08,1.598-3.499,1.598c-1.493,0-2.726-0.62-3.696-1.852c-1.27-1.625-1.902-3.915-1.902-6.869
		c0-2.28,0.464-3.97,1.397-5.074c0.935-1.102,2.091-1.654,3.473-1.654c1.493,0,2.717,0.617,3.671,1.852
		c1.288,1.681,1.931,4.008,1.931,6.978C26.984,25.238,26.527,26.91,25.611,27.977z"/>
</g>
</svg>
