<?xml version="1.0" encoding="UTF-8" standalone="no"?>
<svg
   xmlns:dc="http://purl.org/dc/elements/1.1/"
   xmlns:cc="http://creativecommons.org/ns#"
   xmlns:rdf="http://www.w3.org/1999/02/22-rdf-syntax-ns#"
   xmlns:svg="http://www.w3.org/2000/svg"
   xmlns="http://www.w3.org/2000/svg"
   xmlns:sodipodi="http://sodipodi.sourceforge.net/DTD/sodipodi-0.dtd"
   xmlns:inkscape="http://www.inkscape.org/namespaces/inkscape"
   version="1.1"
   width="108px"
   height="108px"
   viewBox="-0.015 -0.015 1.03 1.03"
   preserveAspectRatio="xMidYMid"
   id="svg18"
   sodipodi:docname="ic_app_color_fg_108dp-mdpi.svg"
   inkscape:version="0.92.3 (2405546, 2018-03-11)">
  <metadata
     id="metadata22">
    <rdf:RDF>
      <cc:Work
         rdf:about="">
        <dc:format>image/svg+xml</dc:format>
        <dc:type
           rdf:resource="http://purl.org/dc/dcmitype/StillImage" />
      </cc:Work>
    </rdf:RDF>
  </metadata>
  <sodipodi:namedview
     pagecolor="#ffffff"
     bordercolor="#666666"
     borderopacity="1"
     objecttolerance="10"
     gridtolerance="10"
     guidetolerance="10"
     inkscape:pageopacity="0"
     inkscape:pageshadow="2"
     inkscape:window-width="1920"
     inkscape:window-height="1001"
     id="namedview20"
     showgrid="false"
     inkscape:zoom="2.1851852"
     inkscape:cx="54"
     inkscape:cy="54"
     inkscape:window-x="-9"
     inkscape:window-y="-9"
     inkscape:window-maximized="1"
     inkscape:current-layer="svg18" />
  <defs
     id="defs11">
    <filter
       id="symbol-shadow">
      <feGaussianBlur
         in="SourceAlpha"
         result="blur-out"
         stdDeviation="1.3"
         id="feGaussianBlur2" />
      <feMerge
         id="feMerge8">
        <feMergeNode
           id="feMergeNode4" />
        <feMergeNode
           in="SourceGraphic"
           id="feMergeNode6" />
      </feMerge>
    </filter>
    <linearGradient
       gradientTransform="matrix(7.947533e-4,0,0,7.947533e-4,-0.2772007,0.12868865)"
       y2="831.04187"
       x2="831.04279"
       y1="168.94479"
       x1="168.9458"
       gradientUnits="userSpaceOnUse"
       id="SVGID_2_">
      <stop
         id="stop13"
         style="stop-color:#00A5BD"
         offset="0" />
      <stop
         id="stop15"
         style="stop-color:#005E78"
         offset="1" />
    </linearGradient>
    <linearGradient
       gradientTransform="matrix(7.947533e-4,0,0,7.947533e-4,-0.2772007,0.12868865)"
       y2="146.4342"
       x2="146.4537"
       y1="853.52441"
       x1="853.54388"
       gradientUnits="userSpaceOnUse"
       id="SVGID_1_">
      <stop
         id="stop6"
         style="stop-color:#377F94"
         offset="0" />
      <stop
         id="stop8"
         style="stop-color:#34ADC4"
         offset="1" />
    </linearGradient>
  </defs>
  <path
     style="fill:#ffffff;stroke:#000000;stroke-width:0.00048396;stroke-opacity:1"
     inkscape:connector-curvature="0"
     id="path19"
     d="m 0.6255305,0.4051472 h -0.003977 c -0.001856,0.003215 -0.004033,0.005698 -0.006531,0.007449 -0.0025,0.00175 -0.005302,0.002913 -0.008404,0.003484 -0.003103,5.7108e-4 -0.00851,8.5664e-4 -0.0162201,8.5664e-4 H 0.5530672 l -2.4735e-4,-3.0198e-4 c 0.004573,-0.00425 0.0155373,-0.0158379 0.0329272,-0.0348044 0.0118583,-0.0129327 0.0204315,-0.0251864 0.0257176,-0.0367625 0.003431,-0.007359 0.005146,-0.0147179 0.005146,-0.0220799 0,-0.0102888 -0.003946,-0.0192226 -0.0118322,-0.0267978 -0.007888,-0.007575 -0.0177209,-0.0113617 -0.0294983,-0.0113617 -0.0110646,0 -0.0202935,0.003538 -0.0276797,0.0106147 -0.00739,0.007076 -0.0119749,0.0172258 -0.0137598,0.0304474 h 0.003958 c 0.00271,-0.008062 0.006898,-0.0141803 0.0125674,-0.0183539 0.005667,-0.004173 0.0120674,-0.006262 0.0191983,-0.006262 0.007844,0 0.0145825,0.002962 0.0202157,0.008885 0.005634,0.005922 0.00845,0.0134868 0.00845,0.0226906 0,0.0120766 -0.005136,0.0254003 -0.0154062,0.0399735 -0.007559,0.0107252 -0.0191665,0.0237388 -0.0347952,0.0390259 -0.0177562,-0.0112382 -0.0385889,-0.0168774 -0.062528,-0.0168774 -0.0302398,0 -0.0550424,0.009267 -0.0744145,0.0277933 -0.0193716,0.0185262 -0.0290574,0.0406408 -0.0290574,0.0663508 0,0.0168284 0.004241,0.0321925 0.0127314,0.0460863 0.008483,0.0138996 0.0206508,0.0247193 0.0365026,0.0324673 -0.0194335,0.016271 -0.0318349,0.0288508 -0.0372107,0.0377396 -0.005376,0.008896 -0.008064,0.016649 -0.008064,0.0232626 0,0.00587 0.002027,0.0111164 0.006091,0.0157493 0.004056,0.004633 0.0109991,0.009885 0.0208153,0.0157483 -0.0179973,0.0186579 -0.0276554,0.0288386 -0.0289752,0.0305365 -0.003509,0.00435 -0.006753,0.008506 -0.009429,0.0121878 0.008682,0.004565 0.0178724,0.008649 0.0271371,0.0121496 -1.2637e-4,-9.423e-4 -2.4005e-4,-0.002074 -2.4005e-4,-0.00304 0,-0.006944 0.002276,-0.0145462 0.00684,-0.0227962 0.004565,-0.008262 0.011308,-0.0171716 0.0202447,-0.0267403 0.0228571,0.003252 0.0555442,0.005451 0.0980623,0.006599 0.0290919,7.4959e-4 0.0485535,0.003183 0.0583767,0.007307 0.009638,0.004119 0.0144567,0.0110477 0.0144567,0.020795 0,0.002001 -1.5972e-4,0.003729 -5.1536e-4,0.005695 0.007249,-0.003781 0.0142568,-0.007966 0.0210529,-0.0124362 1.011e-4,-0.001494 1.4078e-4,-0.002695 1.4078e-4,-0.004203 0,-0.0154535 -0.005252,-0.028453 -0.015742,-0.0390046 -0.0104906,-0.0105526 -0.0245277,-0.0170554 -0.0421053,-0.0195095 -0.011535,-0.001885 -0.0367708,-0.003348 -0.0757071,-0.0044 -0.0211728,-6.258e-4 -0.0344061,-0.001361 -0.0396991,-0.0022 -0.009074,-0.001306 -0.0151719,-0.003458 -0.0182924,-0.006455 -0.003122,-0.002991 -0.004675,-0.006077 -0.004675,-0.00926 0,-0.003739 0.001464,-0.00827 0.0044,-0.0136034 0.002935,-0.005335 0.008572,-0.0115564 0.016904,-0.0186642 0.0133909,0.003836 0.026507,0.005746 0.0393347,0.005746 0.0311201,0 0.0559226,-0.008614 0.0744145,-0.0258547 0.0184851,-0.0172331 0.0277314,-0.0379734 0.0277314,-0.0622189 0,-0.0193246 -0.00441,-0.0354998 -0.0132013,-0.0485399 h 0.0393085 z M 0.52305214,0.54868895 c -0.009225,0.0107375 -0.0209871,0.0161064 -0.0352859,0.0161064 -0.0150615,0 -0.0274837,-0.006215 -0.0372653,-0.0186579 -0.0128,-0.0163881 -0.0191998,-0.0394726 -0.0191998,-0.0692516 0,-0.0229877 0.004702,-0.0400364 0.0141131,-0.0511591 0.009411,-0.0111165 0.0210839,-0.0166766 0.035011,-0.0166766 0.0150544,0 0.0273874,0.006222 0.0369837,0.0186569 0.0129859,0.0169592 0.0194819,0.0404207 0.0194819,0.0703793 -4.9e-7,0.0229945 -0.004613,0.0398652 -0.0138387,0.0506026 z" />
</svg>
