<?xml version="1.0" encoding="UTF-8" standalone="no"?>
<!-- Generator: Adobe Illustrator 16.0.0, SVG Export Plug-In . SVG Version: 6.00 Build 0)  -->

<svg
   xmlns:dc="http://purl.org/dc/elements/1.1/"
   xmlns:cc="http://creativecommons.org/ns#"
   xmlns:rdf="http://www.w3.org/1999/02/22-rdf-syntax-ns#"
   xmlns:svg="http://www.w3.org/2000/svg"
   xmlns="http://www.w3.org/2000/svg"
   xmlns:sodipodi="http://sodipodi.sourceforge.net/DTD/sodipodi-0.dtd"
   xmlns:inkscape="http://www.inkscape.org/namespaces/inkscape"
   version="1.1"
   id="Layer_1"
   x="0px"
   y="0px"
   width="1024"
   height="500"
   viewBox="0 0 1024 500"
   enable-background="new 0 0 1000 1000"
   xml:space="preserve"
   inkscape:version="0.92.3 (2405546, 2018-03-11)"
   sodipodi:docname="feature.svg"
   inkscape:export-filename="C:\Users\HashEngineering\Documents\HashEngineering\Groestlcoin\groestlcoin-wallet\market\market-feature-graphic-testnet.png"
   inkscape:export-xdpi="96"
   inkscape:export-ydpi="96"><metadata
   id="metadata30"><rdf:RDF><cc:Work
       rdf:about=""><dc:format>image/svg+xml</dc:format><dc:type
         rdf:resource="http://purl.org/dc/dcmitype/StillImage" /><dc:title></dc:title></cc:Work></rdf:RDF></metadata><defs
   id="defs28"><pattern
     y="0"
     x="0"
     height="6"
     width="6"
     patternUnits="userSpaceOnUse"
     id="EMFhbasepattern" /></defs><sodipodi:namedview
   pagecolor="#ffffff"
   bordercolor="#666666"
   borderopacity="1"
   objecttolerance="10"
   gridtolerance="10"
   guidetolerance="10"
   inkscape:pageopacity="0"
   inkscape:pageshadow="2"
   inkscape:window-width="1920"
   inkscape:window-height="1001"
   id="namedview26"
   showgrid="false"
   inkscape:zoom="0.93613659"
   inkscape:cx="624.22147"
   inkscape:cy="134.11623"
   inkscape:window-x="-9"
   inkscape:window-y="-9"
   inkscape:window-maximized="1"
   inkscape:current-layer="Layer_1" />
<linearGradient
   id="SVGID_1_"
   gradientUnits="userSpaceOnUse"
   x1="132.7876"
   y1="867.21387"
   x2="867.21399"
   y2="132.78748"
   gradientTransform="matrix(0.93000004,0,0,1.0471104,12.523813,-37.955373)">
	<stop
   offset="0.0945451"
   style="stop-color:#000229"
   id="stop4" />
	<stop
   offset="0.2100622"
   style="stop-color:#000832"
   id="stop6" />
	<stop
   offset="0.3957825"
   style="stop-color:#021749"
   id="stop8" />
	<stop
   offset="0.6272703"
   style="stop-color:#03306F"
   id="stop10" />
	<stop
   offset="0.700389"
   style="stop-color:#04397D"
   id="stop12" />
	<stop
   offset="1"
   style="stop-color:#095A9B"
   id="stop14" />
</linearGradient>


<text
   xml:space="preserve"
   style="font-style:normal;font-variant:normal;font-weight:normal;font-stretch:normal;font-size:78.42686462px;line-height:1.25;font-family:Imagine;-inkscape-font-specification:Imagine;letter-spacing:0px;word-spacing:0px;fill:#000000;fill-opacity:1;stroke:none;stroke-width:1.96067154"
   x="556.80237"
   y="181.20416"
   id="text1400"><tspan
     sodipodi:role="line"
     id="tspan1398"
     x="556.80237"
     y="181.20416"
     style="stroke-width:1.96067154">Groestlcoin </tspan><tspan
     sodipodi:role="line"
     x="556.80237"
     y="279.23773"
     id="tspan1402"
     style="stroke-width:1.96067154">Wallet</tspan><tspan
     sodipodi:role="line"
     x="556.80237"
     y="377.27133"
     id="tspan1404"
     style="stroke-width:1.96067154" /></text>
<g
   id="g1428"
   transform="matrix(9.9911931,0,0,9.9911931,24.569064,-4970.5966)"><path
     inkscape:connector-curvature="0"
     style="fill:#3596ac;fill-opacity:1;fill-rule:evenodd;stroke:none"
     d="m 32.959756,542.39969 c -3.119977,1.67998 -6.71995,2.63998 -10.479923,2.63998 -2.799979,0 -5.439959,-0.56 -7.919941,-1.43999 0,-0.08 0,-0.24 0,-0.32 0,-0.64 0.239998,-1.35999 0.639995,-2.07998 0.399997,-0.8 1.039993,-1.59999 1.919986,-2.47999 2.079985,0.24 5.119962,0.48 9.119933,0.56 2.63998,0.08 4.479966,0.32 5.35996,0.71999 0.959993,0.32 1.35999,1.04 1.35999,1.91999 0,0.16 0,0.32 0,0.48 z M 22.639832,529.59978 c 1.279991,0 2.399983,-0.48 3.279976,-1.51999 0.799994,-0.95999 1.279991,-2.55998 1.279991,-4.71996 0,-2.71998 -0.639996,-4.95997 -1.839987,-6.47996 -0.879993,-1.19999 -1.999985,-1.75998 -3.439974,-1.75998 -1.279991,0 -2.399983,0.47999 -3.279976,1.51999 -0.879994,1.03999 -1.279991,2.63998 -1.279991,4.79996 0,2.71998 0.559996,4.87996 1.759987,6.39995 0.959993,1.2 2.079985,1.75999 3.519974,1.75999 z M 22.479833,500 C 10.079925,500 0,510.07992 0,522.47983 c 0,8.71994 4.8799639,16.23988 12.079911,19.99986 0.239998,-0.4 0.559995,-0.8 0.879993,-1.2 0.08,-0.16 1.039992,-1.03999 2.71998,-2.79997 -0.959993,-0.56 -1.599988,-1.04 -1.999985,-1.43999 -0.319998,-0.48 -0.559996,-0.96 -0.559996,-1.51999 0,-0.56 0.239998,-1.27999 0.799994,-2.15999 0.479996,-0.79999 1.599988,-1.99998 3.439974,-3.51997 -1.519988,-0.72 -2.63998,-1.67999 -3.439974,-2.95998 -0.719995,-1.35999 -1.119992,-2.71998 -1.119992,-4.31997 0,-2.39998 0.879994,-4.47996 2.639981,-6.15995 1.839986,-1.75999 4.159969,-2.55998 6.959948,-2.55998 2.239983,0 4.159969,0.47999 5.839957,1.51999 1.439989,-1.43999 2.479981,-2.63998 3.199976,-3.59998 0.959993,-1.35999 1.439989,-2.63998 1.439989,-3.75997 0,-0.79999 -0.239998,-1.51999 -0.799994,-2.07998 -0.479996,-0.56 -1.119991,-0.8 -1.839986,-0.8 -0.719995,0 -1.279991,0.16 -1.839986,0.56 -0.479997,0.39999 -0.879994,0.95999 -1.119992,1.67999 h -0.399997 c 0.159999,-1.2 0.639995,-2.15999 1.27999,-2.79998 0.719995,-0.64 1.519989,-0.96 2.559981,-0.96 1.119992,0 1.999986,0.32 2.79998,1.04 0.719994,0.71999 1.039992,1.51998 1.039992,2.47998 0,0.63999 -0.159999,1.35999 -0.479996,2.07998 -0.479997,1.03999 -1.279991,2.15999 -2.399983,3.35998 -1.599988,1.75998 -2.63998,2.87998 -3.039977,3.27997 v 0 h 3.519974 c 0.719994,0 1.199991,0 1.519989,-0.08 0.239998,-0.08 0.559995,-0.16 0.719994,-0.31999 0.239998,-0.16 0.479997,-0.4 0.639995,-0.72 h 0.399997 l -1.199991,3.51997 h -3.679972 c 0.799994,1.2 1.199991,2.71998 1.199991,4.47997 0,2.23999 -0.799994,4.15997 -2.559981,5.75996 -1.679988,1.59999 -3.999971,2.39998 -6.879949,2.39998 -1.199991,0 -2.399983,-0.16 -3.679973,-0.48 -0.799994,0.64 -1.279991,1.2 -1.599988,1.67999 -0.239998,0.56 -0.399997,0.96 -0.399997,1.27999 0,0.32 0.159999,0.56 0.479996,0.88 0.239998,0.23999 0.799994,0.47999 1.679988,0.55999 0.479996,0.08 1.679987,0.16 3.679972,0.24 3.599974,0.08 5.999956,0.24 7.039948,0.4 1.599988,0.24 2.959978,0.87999 3.919971,1.83998 0.959993,0.96 1.43999,2.15999 1.43999,3.59998 0,0.16 0,0.23999 0,0.39999 6.079955,-3.99997 10.159924,-10.95991 10.159924,-18.79986 C 45.039666,510.07992 34.959741,500 22.479833,500 Z"
     id="path1409" /><path
     inkscape:connector-curvature="0"
     style="fill:#00819a;fill-opacity:1;fill-rule:evenodd;stroke:none"
     d="m 25.359812,516.87987 c 1.199991,1.51999 1.839987,3.75998 1.839987,6.47996 0,2.15998 -0.479997,3.75997 -1.279991,4.71996 -0.879993,1.03999 -1.999985,1.51999 -3.279976,1.51999 -1.439989,0 -2.559981,-0.56 -3.519974,-1.75999 -1.199991,-1.51999 -1.759987,-3.67997 -1.759987,-6.39995 0,-2.15998 0.399997,-3.75997 1.279991,-4.79996 0.879993,-1.04 1.999985,-1.51999 3.279976,-1.51999 1.439989,0 2.559981,0.55999 3.439974,1.75998 z m -9.679928,21.59984 c -0.959993,-0.55999 -1.599988,-1.03999 -1.999985,-1.43998 -0.319998,-0.48 -0.559996,-0.96 -0.559996,-1.51999 0,-0.56 0.239998,-1.27999 0.799994,-2.15999 0.479996,-0.79999 1.599988,-1.99998 3.439974,-3.51997 -1.519988,-0.72 -2.63998,-1.67999 -3.439974,-2.95998 -0.719995,-1.35999 -1.119992,-2.71998 -1.119992,-4.31997 0,-2.39998 0.879994,-4.47996 2.639981,-6.15995 1.839986,-1.75999 4.159969,-2.55998 6.959948,-2.55998 2.239983,0 4.159969,0.47999 5.839957,1.51999 1.439989,-1.43999 2.479981,-2.63998 3.199976,-3.59998 0.959993,-1.35999 1.439989,-2.63998 1.439989,-3.75997 0,-0.79999 -0.239998,-1.51999 -0.799994,-2.07998 -0.479996,-0.56 -1.119991,-0.8 -1.839986,-0.8 -0.719995,0 -1.279991,0.16 -1.839986,0.56 -0.479997,0.39999 -0.879994,0.95999 -1.119992,1.67999 h -0.399997 c 0.159999,-1.2 0.639995,-2.15999 1.27999,-2.79998 0.719995,-0.64 1.519989,-0.96 2.559981,-0.96 0.639996,0 1.119992,0.08 1.599989,0.24 -2.879979,-1.51999 -6.239954,-2.39998 -9.839928,-2.39998 -11.599914,0 -21.0398437,9.43993 -21.0398437,21.03984 0,8.23994 4.6399657,15.35989 11.5199147,18.79986 0.159999,-0.16 1.039992,-1.11999 2.71998,-2.79998 z m 17.359871,-34.23974 c 0.159999,0.08 0.319998,0.24 0.479997,0.4 0.719994,0.71999 1.039992,1.51998 1.039992,2.47998 0,0.71999 -0.159999,1.35999 -0.479996,2.07998 -0.479997,1.03999 -1.279991,2.15999 -2.399983,3.35998 -1.599988,1.75998 -2.63998,2.87998 -3.039977,3.27997 v 0 h 3.519974 c 0.719994,0 1.199991,0 1.519989,-0.08 0.239998,-0.08 0.559995,-0.16 0.719994,-0.31999 0.239998,-0.16 0.479997,-0.4 0.639995,-0.72 h 0.399997 l -1.199991,3.51997 h -3.679972 c 0.799994,1.2 1.199991,2.71998 1.199991,4.47997 0,2.23999 -0.799994,4.15997 -2.559981,5.75996 -1.679988,1.59999 -3.999971,2.39998 -6.879949,2.39998 -1.199991,0 -2.399983,-0.16 -3.679973,-0.48 -0.799994,0.64 -1.279991,1.2 -1.599988,1.67999 -0.239998,0.56 -0.399997,0.96 -0.399997,1.27999 0,0.32 0.159999,0.56 0.479996,0.88 0.239998,0.23999 0.799994,0.47999 1.679988,0.55999 0.479996,0.08 1.679987,0.16 3.679972,0.24 3.599974,0.08 5.999956,0.24 7.039948,0.4 1.599988,0.24 2.959978,0.87999 3.919971,1.83998 0.639996,0.64 1.119992,1.43999 1.35999,2.31999 5.279961,-3.75997 8.799935,-10.07993 8.799935,-17.11988 0,-7.75994 -4.239969,-14.55989 -10.559922,-18.23986 z m -1.439989,35.75973 c -0.879994,-0.39999 -2.71998,-0.63999 -5.35996,-0.71999 -3.999971,-0.08 -7.039948,-0.32 -9.119933,-0.56 -0.879993,0.88 -1.519989,1.67999 -1.919986,2.47999 -0.159998,0.31999 -0.319997,0.63999 -0.399997,0.87999 2.399983,0.95999 4.959964,1.51999 7.679943,1.51999 3.759973,0 7.199947,-0.96 10.239925,-2.71998 -0.159999,-0.4 -0.559996,-0.72 -1.119992,-0.88 z"
     id="path1411" /><path
     inkscape:connector-curvature="0"
     style="fill:#ffffff;fill-opacity:1;fill-rule:nonzero;stroke:none"
     d="M 35.439737,514.71989 H 35.03974 c -0.159998,0.32 -0.399997,0.56 -0.639995,0.72 -0.159999,0.15999 -0.479996,0.23999 -0.719994,0.31999 -0.319998,0.08 -0.799995,0.08 -1.519989,0.08 h -3.519974 v 0 c 0.399997,-0.39999 1.439989,-1.51999 3.039977,-3.27997 1.119992,-1.19999 1.919986,-2.31999 2.399983,-3.35998 0.319997,-0.71999 0.479996,-1.35999 0.479996,-2.07998 0,-0.96 -0.319998,-1.75999 -1.039992,-2.47998 -0.799994,-0.72 -1.679988,-1.04 -2.79998,-1.04 -1.039992,0 -1.839986,0.32 -2.559981,0.96 -0.639995,0.63999 -1.119991,1.59998 -1.27999,2.79998 h 0.399997 c 0.239998,-0.72 0.639995,-1.28 1.119992,-1.67999 0.559995,-0.4 1.119991,-0.56 1.839986,-0.56 0.719995,0 1.35999,0.24 1.839986,0.8 0.559996,0.55999 0.799994,1.27999 0.799994,2.07998 0,1.11999 -0.479996,2.39998 -1.439989,3.75997 -0.719995,0.96 -1.759987,2.15999 -3.199976,3.59998 -1.679988,-1.04 -3.599974,-1.51999 -5.839957,-1.51999 -2.799979,0 -5.119962,0.79999 -6.959948,2.55998 -1.759987,1.67999 -2.639981,3.75997 -2.639981,6.15995 0,1.59999 0.399997,2.95998 1.119992,4.31997 0.799994,1.27999 1.919986,2.23998 3.439974,2.95998 -1.839986,1.51999 -2.959978,2.71998 -3.439974,3.51997 -0.559996,0.88 -0.799994,1.59999 -0.799994,2.15999 0,0.55999 0.239998,1.03999 0.559996,1.51999 0.399997,0.39999 1.039992,0.87999 1.999985,1.43998 -1.679988,1.75999 -2.639981,2.63998 -2.71998,2.79998 -0.319998,0.4 -0.639995,0.8 -0.879993,1.2 0.799994,0.39999 1.679987,0.79999 2.479981,1.11999 0,-0.08 0,-0.24 0,-0.32 0,-0.64 0.239998,-1.35999 0.639995,-2.07998 0.399997,-0.8 1.039993,-1.59999 1.919986,-2.47999 2.079985,0.24 5.119962,0.48 9.119933,0.56 2.63998,0.08 4.479966,0.32 5.35996,0.71999 0.959993,0.32 1.35999,1.04 1.35999,1.91999 0,0.16 0,0.32 0,0.48 0.639995,-0.32 1.27999,-0.72 1.919986,-1.12 0,-0.16 0,-0.23999 0,-0.39999 0,-1.43999 -0.479997,-2.63998 -1.43999,-3.59998 -0.959993,-0.95999 -2.239983,-1.59998 -3.919971,-1.83998 -1.039992,-0.16 -3.439974,-0.32 -7.039948,-0.4 -1.999985,-0.08 -3.199976,-0.16 -3.679972,-0.24 -0.879994,-0.08 -1.43999,-0.32 -1.679988,-0.55999 -0.319997,-0.32 -0.479996,-0.56 -0.479996,-0.88 0,-0.31999 0.159999,-0.71999 0.399997,-1.27999 0.319997,-0.47999 0.799994,-1.03999 1.599988,-1.67999 1.27999,0.32 2.479982,0.48 3.679973,0.48 2.879978,0 5.199961,-0.79999 6.879949,-2.39998 1.759987,-1.59999 2.559981,-3.51998 2.559981,-5.75996 0,-1.75999 -0.399997,-3.27997 -1.199991,-4.47997 h 3.679972 z m -9.519929,13.3599 c -0.879993,1.03999 -1.999985,1.51999 -3.279976,1.51999 -1.439989,0 -2.559981,-0.55999 -3.519974,-1.75999 -1.199991,-1.51999 -1.759987,-3.67997 -1.759987,-6.39995 0,-2.15998 0.399997,-3.75997 1.279991,-4.79996 0.879993,-1.04 1.999985,-1.51999 3.279976,-1.51999 1.439989,0 2.559981,0.55999 3.439974,1.75998 1.199991,1.51999 1.839987,3.75998 1.839987,6.47996 0,2.15998 -0.479997,3.75997 -1.279991,4.71996 z"
     id="path1413" /></g></svg>