<?xml version="1.0" encoding="UTF-8" standalone="no"?>
<svg
   xmlns:dc="http://purl.org/dc/elements/1.1/"
   xmlns:cc="http://creativecommons.org/ns#"
   xmlns:rdf="http://www.w3.org/1999/02/22-rdf-syntax-ns#"
   xmlns:svg="http://www.w3.org/2000/svg"
   xmlns="http://www.w3.org/2000/svg"
   xmlns:xlink="http://www.w3.org/1999/xlink"
   xmlns:sodipodi="http://sodipodi.sourceforge.net/DTD/sodipodi-0.dtd"
   xmlns:inkscape="http://www.inkscape.org/namespaces/inkscape"
   xml:space="preserve"
   enable-background="new 0 0 1000 1000"
   viewBox="0 0 48 48"
   height="48"
   width="48"
   y="0px"
   x="0px"
   id="GRS"
   version="1.1"
   sodipodi:docname="high-res-icon.svg"
   inkscape:export-filename="C:\Users\HashEngineering\Documents\HashEngineering\Groestlcoin\groestlcoin-wallet\market\512x512.png"
   inkscape:export-xdpi="1024"
   inkscape:export-ydpi="1024"
   inkscape:version="0.92.3 (2405546, 2018-03-11)"><sodipodi:namedview
   pagecolor="#ffffff"
   bordercolor="#666666"
   borderopacity="1"
   objecttolerance="10"
   gridtolerance="10"
   guidetolerance="10"
   inkscape:pageopacity="0"
   inkscape:pageshadow="2"
   inkscape:window-width="1920"
   inkscape:window-height="1001"
   id="namedview16"
   showgrid="false"
   inkscape:zoom="4.9166667"
   inkscape:cx="24"
   inkscape:cy="15.864407"
   inkscape:window-x="-9"
   inkscape:window-y="-9"
   inkscape:window-maximized="1"
   inkscape:current-layer="GRS" /><metadata
   id="metadata25"><rdf:RDF><cc:Work
       rdf:about=""><dc:format>image/svg+xml</dc:format><dc:type
         rdf:resource="http://purl.org/dc/dcmitype/StillImage" /><dc:title /></cc:Work></rdf:RDF></metadata><defs
   id="defs23">
	<linearGradient
   id="SVGID_1_"
   gradientUnits="userSpaceOnUse"
   x1="853.54388"
   y1="853.52441"
   x2="146.4537"
   y2="146.4342"
   gradientTransform="matrix(0.08333333,0,0,0.08333333,1.0833333,1.0833333)">
		<stop
   offset="0"
   style="stop-color:#377F94"
   id="stop6" />
		<stop
   offset="1"
   style="stop-color:#34ADC4"
   id="stop8" />
	</linearGradient>
	
	<linearGradient
   xlink:href="#SVGID_1_"
   id="SVGID_2_"
   gradientUnits="userSpaceOnUse"
   x1="168.9458"
   y1="168.94479"
   x2="831.04279"
   y2="831.04187"
   gradientTransform="matrix(0.07962963,0,0,0.07962963,2.1018518,2.1018519)">
		<stop
   offset="0"
   style="stop-color:#00A5BD"
   id="stop13" />
		<stop
   offset="1"
   style="stop-color:#005E78"
   id="stop15" />
	</linearGradient>
	
	
<linearGradient
   y2="146.4342"
   x2="146.4537"
   y1="853.52441"
   x1="853.54388"
   gradientTransform="matrix(0.07962963,0,0,0.07962963,2.1018518,2.1018519)"
   gradientUnits="userSpaceOnUse"
   id="linearGradient832"
   xlink:href="#SVGID_1_" /></defs>
<rect
   y="-0.0074245543"
   x="0"
   height="48.113892"
   width="48.007423"
   id="rect830"
   style="opacity:1;fill:url(#SVGID_2_);fill-opacity:1;fill-rule:nonzero;stroke:none;stroke-width:0.075251;stroke-linejoin:round;stroke-miterlimit:4;stroke-dasharray:none;stroke-opacity:1" />
<path
   d="M 33.970066,43.051838 C 30.989865,44.61463 27.598584,45.5 24,45.5 c -2.658432,0 -5.203473,-0.48375 -7.553681,-1.365852 -0.01044,-0.08239 -0.02133,-0.191737 -0.02133,-0.270169 0,-0.616964 0.202186,-1.292451 0.607762,-2.025472 0.405576,-0.734096 1.004738,-1.525726 1.798776,-2.375922 2.03089,0.288917 4.935196,0.484352 8.713004,0.586305 2.584859,0.0666 4.314061,0.282854 5.186875,0.6493 0.856345,0.36593 1.284496,0.981604 1.284496,1.847667 0,0.170237 -0.01664,0.338711 -0.04584,0.505981 z M 24.100233,30.784411 c 1.270478,0 2.31555,-0.477042 3.135216,-1.431083 0.819666,-0.954041 1.229542,-2.453021 1.229542,-4.496123 0,-2.661829 -0.577189,-4.746469 -1.731008,-6.253318 -0.852647,-1.104928 -1.948459,-1.657693 -3.28606,-1.657693 -1.237454,0 -2.274614,0.49407 -3.110792,1.481737 -0.836178,0.988269 -1.253966,2.503073 -1.253966,4.545573 0,2.645919 0.568632,4.696976 1.705939,6.153128 0.869202,1.105616 1.972883,1.657779 3.311129,1.657779 z M 24,2.5 C 12.12555,2.5 2.5,12.12555 2.5,24 c 0,8.277844 4.678615,15.461682 11.535137,19.054633 0.235382,-0.322672 0.532813,-0.704727 0.837812,-1.082912 0.117304,-0.150844 0.975455,-1.055435 2.574496,-2.713214 -0.872212,-0.520945 -1.48909,-0.987667 -1.849473,-1.399263 -0.360985,-0.411682 -0.541155,-0.877716 -0.541155,-1.399349 0,-0.587638 0.238822,-1.276584 0.716466,-2.066924 0.477644,-0.789781 1.579519,-1.907523 3.306227,-3.353226 -1.408465,-0.68843 -2.489571,-1.649781 -3.243318,-2.884784 -0.754306,-1.234487 -1.131201,-2.599565 -1.131201,-4.094847 0,-2.284375 0.860602,-4.24926 2.581806,-5.895386 1.721247,-1.646083 3.924997,-2.46949 6.611852,-2.46949 2.127038,0 3.978059,0.501079 5.555729,1.499582 1.388642,-1.358284 2.42004,-2.514554 3.091614,-3.46752 0.912503,-1.294859 1.368862,-2.478735 1.368862,-3.551714 0,-0.817817 -0.250174,-1.48995 -0.750737,-2.016098 -0.500563,-0.526191 -1.099295,-0.789437 -1.796196,-0.789437 -0.633605,0 -1.202194,0.185502 -1.70581,0.556334 -0.503745,0.370832 -0.875867,0.914481 -1.116624,1.630775 h -0.351654 c 0.158584,-1.17476 0.566052,-2.076599 1.222576,-2.705302 0.656309,-0.628746 1.476233,-0.943162 2.459385,-0.943162 1.046448,0 1.920165,0.336518 2.620979,1.009511 0.700728,0.673079 1.051307,1.466816 1.051307,2.381039 0,0.654073 -0.152392,1.307974 -0.457176,1.961832 -0.469689,1.02856 -1.231434,2.11732 -2.285063,3.266409 -1.545119,1.685213 -2.519327,2.714762 -2.925634,3.092431 l 0.02198,0.02683 h 3.316934 c 0.685033,0 1.165429,-0.02537 1.441188,-0.07611 0.275716,-0.05074 0.524686,-0.153983 0.746781,-0.309514 0.222009,-0.155488 0.415423,-0.376207 0.580328,-0.661856 h 0.353374 l -1.13886,3.29767 H 31.7093 c 0.781052,1.158635 1.172954,2.595824 1.172954,4.312857 0,2.1543 -0.821515,3.997065 -2.463986,5.528252 -1.64303,1.531875 -3.84678,2.297232 -6.611852,2.297232 -1.139758,0 -2.305144,-0.169807 -3.494954,-0.510625 -0.740288,0.631584 -1.241152,1.184349 -1.501947,1.658338 -0.260795,0.473903 -0.390913,0.876469 -0.390913,1.208687 0,0.282854 0.13803,0.557065 0.415337,0.822805 0.277307,0.266299 0.819064,0.457477 1.625314,0.573534 0.470334,0.07448 1.646083,0.139836 3.527333,0.195435 3.459522,0.09348 5.7018,0.223557 6.726705,0.390956 1.561803,0.21801 2.809018,0.795844 3.741129,1.733459 0.932068,0.937529 1.398704,2.092552 1.398704,3.465628 0,0.124958 -0.0047,0.249357 -0.01251,0.373412 C 41.660315,38.099528 45.5,31.498813 45.5,24 45.5,12.12555 35.874321,2.5 24,2.5 Z"
   id="path10"
   style="opacity:0.6;fill:url(#linearGradient832);stroke-width:0.043" />
   <path
   d="m 26.733983,18.60393 c 1.153819,1.506849 1.731008,3.591446 1.731008,6.253318 0,2.043102 -0.409833,3.542039 -1.229542,4.496123 -0.819709,0.954084 -1.864738,1.431083 -3.135216,1.431083 -1.338246,0 -2.44197,-0.552206 -3.311086,-1.657779 -1.137307,-1.456109 -1.705939,-3.507209 -1.705939,-6.153128 0,-2.0425 0.417788,-3.557304 1.253966,-4.545573 0.836178,-0.987667 1.873338,-1.481737 3.110792,-1.481737 1.337601,0 2.43337,0.552722 3.286017,1.657693 z m -9.286538,20.65462 c -0.872212,-0.520945 -1.48909,-0.987667 -1.849473,-1.399263 -0.360985,-0.411682 -0.541155,-0.877716 -0.541155,-1.399349 0,-0.587638 0.238822,-1.276584 0.716466,-2.066924 0.477644,-0.789781 1.579519,-1.907523 3.306227,-3.353226 -1.408465,-0.68843 -2.489571,-1.649781 -3.243318,-2.884784 -0.754306,-1.234487 -1.131201,-2.599565 -1.131201,-4.094847 0,-2.284375 0.860602,-4.24926 2.581806,-5.895386 1.721247,-1.646083 3.924997,-2.46949 6.611852,-2.46949 2.127038,0 3.978059,0.501079 5.555729,1.499582 1.388642,-1.358284 2.42004,-2.514554 3.091614,-3.46752 0.912503,-1.294859 1.368862,-2.478735 1.368862,-3.551714 0,-0.817817 -0.250174,-1.48995 -0.750737,-2.016098 -0.500563,-0.526191 -1.099295,-0.789437 -1.796196,-0.789437 -0.633605,0 -1.202194,0.185502 -1.70581,0.556334 -0.503745,0.370832 -0.875867,0.914481 -1.116624,1.630775 h -0.351654 c 0.158584,-1.17476 0.566052,-2.076599 1.222576,-2.705302 0.656309,-0.628746 1.476233,-0.943162 2.459385,-0.943162 0.562354,0 1.074441,0.098126 1.537035,0.292572 C 30.603682,4.712608 27.400698,3.868174 24,3.868174 12.881404,3.868174 3.868174,12.88149 3.868174,24 c 0,7.838341 4.479783,14.629761 11.018492,17.955209 0.154241,-0.187652 1.006415,-1.085277 2.560779,-2.696659 z M 34.058603,6.557781 c 0.152779,0.107113 0.299022,0.226911 0.438213,0.360555 0.700728,0.673079 1.051307,1.466816 1.051307,2.381039 0,0.654073 -0.152392,1.307974 -0.457176,1.961832 -0.469689,1.02856 -1.231434,2.11732 -2.285063,3.266409 -1.545119,1.685213 -2.519327,2.714762 -2.925634,3.092431 l 0.02198,0.02683 h 3.316934 c 0.685033,0 1.165429,-0.02537 1.441188,-0.07611 0.275716,-0.05074 0.524686,-0.153983 0.746781,-0.309514 0.222009,-0.155488 0.415423,-0.376207 0.580328,-0.661856 h 0.353374 L 35.20193,19.89694 h -3.492632 c 0.781052,1.158635 1.172954,2.595824 1.172954,4.312857 0,2.1543 -0.821515,3.997065 -2.463986,5.528252 -1.64303,1.531875 -3.84678,2.297232 -6.611852,2.297232 -1.139758,0 -2.305144,-0.169807 -3.494954,-0.510625 -0.740288,0.631584 -1.241152,1.184349 -1.501947,1.658338 -0.260795,0.473903 -0.390913,0.876469 -0.390913,1.208687 0,0.282854 0.13803,0.557065 0.415337,0.822805 0.277307,0.266299 0.819064,0.457477 1.625314,0.573534 0.470334,0.07448 1.646083,0.139836 3.527333,0.195435 3.459522,0.09348 5.7018,0.223557 6.726705,0.390956 1.561803,0.21801 2.809018,0.795844 3.741129,1.733459 0.645559,0.6493 1.067432,1.403133 1.266006,2.261284 C 40.813473,36.716089 44.131826,30.745883 44.131826,24 c 0,-7.454523 -4.051976,-13.962358 -10.073223,-17.442219 z M 32.731408,40.69819 c -0.872814,-0.366403 -2.602016,-0.582693 -5.186875,-0.6493 -3.777765,-0.101953 -6.682071,-0.297388 -8.713004,-0.586305 -0.794038,0.850153 -1.3932,1.641826 -1.798776,2.375922 -0.171785,0.310503 -0.306676,0.610557 -0.405576,0.900334 2.283257,0.899044 4.770334,1.392985 7.372823,1.392985 3.554294,0 6.892685,-0.922307 9.791057,-2.538849 -0.208249,-0.382915 -0.56072,-0.681636 -1.059649,-0.894787 z"
   id="path17"
   style="fill:url(#SVGID_2_);fill-opacity:1;stroke-width:0.043" />
   <path
   d="m 36.340828,16.599399 h -0.353374 c -0.164905,0.285649 -0.358319,0.506325 -0.580328,0.661856 -0.222095,0.155531 -0.471065,0.258817 -0.746781,0.309514 -0.275759,0.05074 -0.756155,0.07611 -1.441188,0.07611 h -3.316934 l -0.02198,-0.02683 c 0.406307,-0.377669 1.380515,-1.407218 2.925634,-3.092431 1.053629,-1.149089 1.815374,-2.237849 2.285063,-3.266409 0.304784,-0.653815 0.457176,-1.307716 0.457176,-1.961832 0,-0.914223 -0.350579,-1.70796 -1.051307,-2.381039 -0.700814,-0.672993 -1.574531,-1.009511 -2.620979,-1.009511 -0.983152,0 -1.803119,0.314416 -2.459385,0.943162 -0.656524,0.628703 -1.063992,1.530542 -1.222576,2.705302 h 0.351654 c 0.240762,-0.716294 0.612884,-1.259943 1.116629,-1.630775 0.503616,-0.370832 1.072205,-0.556334 1.70581,-0.556334 0.696901,0 1.295676,0.263246 1.796196,0.789437 0.500563,0.526148 0.750737,1.198324 0.750737,2.016098 0,1.073022 -0.456359,2.256855 -1.368862,3.551714 -0.671574,0.952966 -1.702972,2.109236 -3.091614,3.46752 -1.57767,-0.998503 -3.428691,-1.499582 -5.555729,-1.499582 -2.686855,0 -4.890605,0.823364 -6.611852,2.46949 -1.721204,1.646083 -2.581806,3.611011 -2.581806,5.895386 0,1.495239 0.376852,2.86036 1.131201,4.094847 0.753747,1.235003 1.834853,2.196354 3.243318,2.884784 -1.726708,1.445703 -2.828583,2.563445 -3.306227,3.353226 -0.477644,0.790383 -0.716466,1.479286 -0.716466,2.066924 0,0.521633 0.18017,0.987667 0.541155,1.399349 0.360383,0.411596 0.977261,0.878318 1.849473,1.399263 -1.599084,1.657779 -2.457235,2.56237 -2.574496,2.713214 -0.311793,0.38657 -0.600108,0.755768 -0.837812,1.082912 0.77142,0.405576 1.58799,0.768539 2.411182,1.079515 -0.01123,-0.08372 -0.02133,-0.184255 -0.02133,-0.270169 0,-0.616964 0.202186,-1.292451 0.607762,-2.025472 0.405576,-0.734096 1.004738,-1.525726 1.798776,-2.375922 2.03089,0.288917 4.935196,0.484352 8.713004,0.586305 2.584859,0.0666 4.314061,0.282854 5.186875,0.6493 0.856345,0.36593 1.284496,0.981604 1.284496,1.847667 0,0.177891 -0.01419,0.331315 -0.04579,0.506024 0.64414,-0.335959 1.266737,-0.707737 1.870586,-1.104971 0.009,-0.132784 0.01251,-0.239424 0.01251,-0.373412 0,-1.373076 -0.466679,-2.528099 -1.398704,-3.465628 -0.932111,-0.937615 -2.179326,-1.515406 -3.741129,-1.733459 -1.024905,-0.167399 -3.26714,-0.297474 -6.726705,-0.390956 -1.88125,-0.0556 -3.057042,-0.120959 -3.527333,-0.195435 -0.80625,-0.116057 -1.34805,-0.307235 -1.625314,-0.573534 -0.277307,-0.26574 -0.415337,-0.539951 -0.415337,-0.822805 0,-0.332261 0.130075,-0.734784 0.390913,-1.208687 0.260795,-0.473989 0.761659,-1.026797 1.501947,-1.658338 1.18981,0.340818 2.355196,0.510625 3.494954,0.510625 2.765072,0 4.968822,-0.765357 6.611852,-2.297232 1.642428,-1.531187 2.463986,-3.373995 2.463986,-5.528252 0,-1.717033 -0.391902,-3.154222 -1.172954,-4.312857 h 3.492632 z m -9.105379,12.753929 c -0.819709,0.954084 -1.864738,1.431083 -3.135216,1.431083 -1.338246,0 -2.44197,-0.552206 -3.311086,-1.657779 -1.137307,-1.456109 -1.705939,-3.507209 -1.705939,-6.153128 0,-2.0425 0.417788,-3.557304 1.253966,-4.545573 0.836178,-0.987667 1.873338,-1.481737 3.110792,-1.481737 1.337601,0 2.433413,0.552722 3.28606,1.657693 1.153819,1.506849 1.731008,3.591446 1.731008,6.253318 -4.3e-5,2.043102 -0.409876,3.542082 -1.229585,4.496123 z"
   id="path19"
   style="fill:#ffffff;stroke-width:0.043" />
</svg>