<?xml version="1.0" encoding="utf-8"?>
<!-- Generator: Adobe Illustrator 16.0.0, SVG Export Plug-In . SVG Version: 6.00 Build 0)  -->
<!DOCTYPE svg PUBLIC "-//W3C//DTD SVG 1.1//EN" "http://www.w3.org/Graphics/SVG/1.1/DTD/svg11.dtd">
<svg version="1.1"
	 id="svg2" xmlns:dc="http://purl.org/dc/elements/1.1/" xmlns:cc="http://creativecommons.org/ns#" xmlns:rdf="http://www.w3.org/1999/02/22-rdf-syntax-ns#" xmlns:svg="http://www.w3.org/2000/svg" xmlns:sodipodi="http://sodipodi.sourceforge.net/DTD/sodipodi-0.dtd" xmlns:inkscape="http://www.inkscape.org/namespaces/inkscape" sodipodi:docname="poster.svg" inkscape:version="0.48.3.1 r9886"
	 xmlns="http://www.w3.org/2000/svg" xmlns:xlink="http://www.w3.org/1999/xlink" x="0px" y="0px" width="1052.363px"
	 height="1488.189px" viewBox="0 0 1052.363 1488.189" enable-background="new 0 0 1052.363 1488.189" xml:space="preserve">
<sodipodi:namedview  showgrid="false" inkscape:cy="722.73572" inkscape:cx="444.0042" inkscape:zoom="0.7" borderopacity="1.0" bordercolor="#666666" pagecolor="#ffffff" id="base" inkscape:window-maximized="0" inkscape:window-y="24" inkscape:window-x="66" inkscape:window-height="1387" inkscape:window-width="1247" inkscape:current-layer="layer1" inkscape:document-units="px" inkscape:pageshadow="2" inkscape:pageopacity="0.0">
	</sodipodi:namedview>
<g id="layer1" transform="translate(0,435.82679)" inkscape:label="Layer 1" inkscape:groupmode="layer">
	
		<image overflow="visible" enable-background="new    " width="350" height="350" id="image3185" xlink:href="market-url-qr.png"  transform="matrix(1 0 0 1 -8061.0005 -8406.8262)">
	</image>
	<text transform="matrix(1 0 0 1 45.8311 936.6478)" font-family="'ArialMT'" font-size="26">/*</text>
	<text transform="matrix(1 0 0 1 45.8311 969.1478)" font-family="'ArialMT'" font-size="26"> * This program is free software: you can redistribute it and/or modify it</text>
	<text transform="matrix(1 0 0 1 45.8311 1001.6478)" font-family="'ArialMT'" font-size="26"> * under the terms of the GNU General Public License Version 3.</text>
	<text transform="matrix(1 0 0 1 45.8311 1034.1478)" font-family="'ArialMT'" font-size="26"> */</text>
	<g id="flowRoot3188">
	</g>
	<text transform="matrix(0 -1 1 0 318.082 874.0687)" fill="#808080" font-family="'ArialMT'" font-size="27">Download from Google Play</text>
	<text transform="matrix(1 0 0 1 52.7705 329.5052)" font-family="'ArialMT'" font-size="128">digitalcoin Wallet</text>
	<text transform="matrix(1 0 0 1 252.3027 450.976)" font-family="'ArialMT'" font-size="90">for Android     </text>
	<text transform="matrix(1 0 0 1 74.9458 -360.4948)" font-family="'ArialMT'" font-size="48">Your own digital coins on your own phone!</text>
	<text transform="matrix(1 0 0 1 74.9458 -300.4948)" font-family="'ArialMT'" font-size="48">No cloud server or web service necessary.</text>
	
		<image overflow="visible" enable-background="new    " width="219" height="119" id="image3071" xlink:href="99E9A080.png"  transform="matrix(0.5211 0 0 0.5211 726.2144 388.5775)">
	</image>
	<ellipse fill="#FFFFFF" cx="527.17" cy="35.503" rx="90.658" ry="93.855"/>
	<g>
		<path d="M748.549-32.704c0,122.691-99.463,222.154-222.154,222.154c-122.681,0-222.145-99.463-222.145-222.154
			c0-122.683,99.464-222.146,222.145-222.146C649.086-254.849,748.549-155.386,748.549-32.704L748.549-32.704z M570.554-211.546
			c-23.981,0-44.337,16.778-50.005,39.091H395.332c-8.252,0-12.431,5.569-12.676,12.5V10.38c0,6.746,5.54,12.506,12.676,12.506
			H521.21c5.61,22.392,25.964,39.094,50.014,39.094c28.347,0,51.592-23.245,51.592-51.6c0-28.349-23.245-51.769-51.592-51.769
			c-23.99,0-44.345,16.787-50.014,39.091H407.832v-144.979h112.717c5.668,22.312,26.024,39.091,50.005,39.091
			c28.355,0,51.601-23.416,51.601-51.77C622.155-188.3,598.91-211.546,570.554-211.546L570.554-211.546z M570.554-185.837
			c14.491,0,25.89,11.389,25.89,25.881s-11.398,26.068-25.89,26.068c-14.49,0-25.88-11.576-25.88-26.068
			S556.064-185.837,570.554-185.837L570.554-185.837z M482.415-126.71c-28.346,0-51.77,23.245-51.77,51.593
			c0,28.345,23.424,51.591,51.77,51.591c24.024,0,44.202-16.56,49.836-38.915h112.718v144.31H532.25
			c-5.634-22.355-25.812-39.094-49.836-39.094c-28.346,0-51.77,23.247-51.77,51.602c0,28.347,23.424,51.77,51.77,51.77
			c24.024,0,44.202-16.737,49.836-39.094h125.395c7.382-0.373,12.5-4.921,12.5-12.675V-75.117c0-7.738-4.882-12.5-12.5-12.5H532.25
			C526.617-109.973,506.439-126.71,482.415-126.71L482.415-126.71z M482.415-101.007c14.492,0,25.712,11.399,25.712,25.89
			c0,14.49-11.22,25.888-25.712,25.888s-26.06-11.398-26.06-25.888C456.355-89.609,467.922-101.007,482.415-101.007L482.415-101.007
			z M571.224-15.679c14.491,0,25.881,11.567,25.881,26.059c0,14.489-11.39,25.887-25.881,25.887s-25.889-11.398-25.889-25.887
			C545.335-4.111,556.733-15.679,571.224-15.679L571.224-15.679z M482.415,68.488c14.492,0,25.712,11.398,25.712,25.889
			s-11.22,26.234-25.712,26.234s-26.06-11.743-26.06-26.234S467.922,68.488,482.415,68.488L482.415,68.488z"/>
	</g>
</g>
</svg>
