<?xml version="1.0" encoding="utf-8"?>
<!-- Generator: Adobe Illustrator 12.0.0, SVG Export Plug-In . SVG Version: 6.00 Build 51448)  -->
<!DOCTYPE svg PUBLIC "-//W3C//DTD SVG 1.1//EN" "http://www.w3.org/Graphics/SVG/1.1/DTD/svg11.dtd" [
	<!ENTITY ns_svg "http://www.w3.org/2000/svg">
	<!ENTITY ns_xlink "http://www.w3.org/1999/xlink">
]>
<svg  version="1.1" id="Layer_1" xmlns="&ns_svg;" xmlns:xlink="&ns_xlink;" width="550" height="550" viewBox="0 0 550 550"
	 overflow="visible" enable-background="new 0 0 550 550" xml:space="preserve">
<path fill="#85A4AF" d="M550,275c0,151.882-123.119,275-275,275C123.117,550,0,426.882,0,275C0,123.118,123.117,0,275,0
	C426.881,0,550,123.118,550,275z"/>
<circle fill="#6590A2" cx="275" cy="275" r="257.5"/>
<path fill="#FFFFFF" d="M432.848,180.341h-4.52c-2.109,3.653-4.583,6.476-7.423,8.465c-2.841,1.989-6.025,3.31-9.552,3.959
	c-3.527,0.649-9.672,0.973-18.434,0.973h-42.426l-0.281-0.343c5.197-4.831,17.658-17.999,37.421-39.554
	c13.477-14.698,23.22-28.624,29.228-41.78c3.898-8.362,5.848-16.727,5.848-25.093c0-11.693-4.484-21.846-13.447-30.455
	c-8.964-8.608-20.14-12.913-33.524-12.913c-12.575,0-23.063,4.021-31.457,12.063c-8.397,8.042-13.609,19.577-15.638,34.603h4.498
	c3.079-9.162,7.839-16.116,14.282-20.859c6.441-4.743,13.714-7.116,21.818-7.116c8.914,0,16.572,3.367,22.975,10.098
	c6.402,6.73,9.603,15.327,9.603,25.788c0,13.724-5.837,28.867-17.509,45.429c-8.59,12.188-21.782,26.978-39.544,44.352
	c-20.18-12.771-43.855-19.181-71.062-19.181c-34.367,0-62.555,10.531-84.57,31.586s-33.023,46.188-33.023,75.406
	c0,19.125,4.82,36.586,14.469,52.375c9.641,15.797,23.469,28.094,41.484,36.898c-22.086,18.492-36.18,32.789-42.289,42.891
	c-6.109,10.109-9.164,18.922-9.164,26.438c0,6.672,2.305,12.633,6.922,17.898c4.609,5.266,12.5,11.234,23.656,17.898
	c-20.453,21.203-31.43,32.773-32.93,34.703c-3.988,4.944-7.492,9.5-10.533,13.685c9.867,5.187,20.086,9.791,30.615,13.769
	c-0.144-1.07-0.23-2.151-0.23-3.25c0-7.891,2.586-16.531,7.773-25.906c5.188-9.391,12.852-19.516,23.008-30.391
	c25.977,3.695,63.125,6.195,111.445,7.5c33.063,0.852,55.18,3.617,66.344,8.305c10.953,4.68,16.43,12.555,16.43,23.633
	c0,2.274-0.228,4.525-0.632,6.76c8.239-4.297,16.23-9,23.954-14.081c0.114-1.698,0.178-3.403,0.178-5.116
	c0-17.563-5.969-32.336-17.891-44.328s-27.875-19.383-47.852-22.172c-13.109-2.141-41.789-3.805-86.039-5
	c-24.063-0.711-39.102-1.547-45.117-2.5c-10.313-1.484-17.242-3.93-20.789-7.336c-3.547-3.398-5.313-6.906-5.313-10.523
	c0-4.25,1.664-9.398,5-15.461s9.742-13.133,19.211-21.211c15.219,4.359,30.125,6.531,44.703,6.531
	c35.367,0,63.555-9.789,84.57-29.383c21.008-19.586,31.516-43.156,31.516-70.711c0-21.962-5.013-40.344-15.003-55.165h44.673
	L432.848,180.341z M316.384,343.473c-10.484,12.203-23.852,18.305-40.102,18.305c-17.117,0-31.234-7.063-42.352-21.203
	c-14.547-18.625-21.82-44.859-21.82-78.703c0-26.125,5.344-45.5,16.039-58.141c10.695-12.633,23.961-18.953,39.789-18.953
	c17.109,0,31.125,7.07,42.031,21.203c14.758,19.273,22.141,45.938,22.141,79.984C332.11,312.098,326.868,331.27,316.384,343.473z"/>
</svg>
