<?xml version="1.0" encoding="utf-8"?>
<!-- Generator: Adobe Illustrator 16.0.0, SVG Export Plug-In . SVG Version: 6.00 Build 0)  -->
<!DOCTYPE svg PUBLIC "-//W3C//DTD SVG 1.1//EN" "http://www.w3.org/Graphics/SVG/1.1/DTD/svg11.dtd">
<svg version="1.1" id="Layer_1" xmlns="http://www.w3.org/2000/svg" xmlns:xlink="http://www.w3.org/1999/xlink" x="0px" y="0px"
	 width="37px" height="48px" viewBox="0 0 37 48" enable-background="new 0 0 37 48" xml:space="preserve">
<path display="none" fill="#85A4AF" d="M36.25,24c0,9.661-7.839,17.5-17.5,17.5c-9.664,0-17.5-7.839-17.5-17.5
	c0-9.664,7.836-17.5,17.5-17.5C28.411,6.5,36.25,14.336,36.25,24z"/>
<path display="none" fill="#6590A2" d="M18.75,7.615c9.046,0,16.389,7.336,16.389,16.385c0,9.046-7.343,16.389-16.389,16.389
	C9.701,40.389,2.365,33.046,2.365,24C2.365,14.951,9.701,7.615,18.75,7.615z"/>
<path fill="#FFFFFF" d="M32.5,13.426h-0.439c-0.214,0.359-0.457,0.632-0.739,0.833c-0.266,0.195-0.578,0.328-0.934,0.385
	c-0.339,0.069-0.951,0.1-1.815,0.1H24.41l-0.025-0.032c0.507-0.476,1.735-1.771,3.665-3.891c1.331-1.439,2.29-2.806,2.888-4.1
	c0.384-0.821,0.57-1.645,0.57-2.468c0-1.144-0.452-2.144-1.326-2.988c-0.873-0.842-1.973-1.264-3.291-1.264
	c-1.228,0-2.268,0.396-3.088,1.182c-0.817,0.79-1.343,1.923-1.536,3.398h0.448c0.297-0.902,0.76-1.584,1.392-2.049
	c0.632-0.474,1.362-0.701,2.153-0.701c0.875,0,1.628,0.332,2.256,0.99c0.626,0.658,0.944,1.504,0.944,2.531
	c0,1.348-0.57,2.84-1.724,4.458c-0.846,1.204-2.146,2.66-3.886,4.36c-1.968-1.247-4.304-1.879-6.976-1.879
	c-3.376,0-6.143,1.027-8.303,3.103c-2.162,2.066-3.242,4.532-3.242,7.4c0,1.883,0.471,3.589,1.416,5.144
	c0.944,1.561,2.304,2.767,4.069,3.614c-2.162,1.829-3.551,3.222-4.146,4.227c-0.601,0.997-0.902,1.845-0.902,2.583
	c0,0.673,0.221,1.256,0.675,1.771c0.455,0.515,1.233,1.099,2.325,1.767c-2.011,2.065-3.088,3.214-3.229,3.399
	C5.143,45.79,4.8,46.224,4.5,46.643c0.967,0.513,1.97,0.953,3.007,1.356c-0.015-0.106-0.022-0.212-0.022-0.322
	c0-0.768,0.251-1.616,0.763-2.55c0.507-0.913,1.26-1.91,2.255-2.974c2.554,0.358,6.202,0.597,10.953,0.736
	c3.245,0.066,5.417,0.35,6.508,0.799c1.09,0.48,1.615,1.246,1.615,2.322c0,0.226-0.022,0.457-0.055,0.68
	c0.793-0.426,1.584-0.894,2.347-1.39c0.019-0.171,0.027-0.34,0.027-0.5c0-1.736-0.594-3.168-1.771-4.361
	c-1.177-1.182-2.735-1.901-4.702-2.178c-1.284-0.213-4.092-0.374-8.441-0.48c-2.369-0.077-3.846-0.159-4.431-0.256
	c-1.015-0.139-1.695-0.376-2.047-0.712c-0.349-0.347-0.515-0.676-0.515-1.034c0-0.427,0.165-0.926,0.483-1.529
	c0.333-0.58,0.96-1.277,1.897-2.071c1.49,0.433,2.954,0.646,4.379,0.646c3.49,0,6.236-0.971,8.308-2.899
	c2.063-1.912,3.096-4.229,3.096-6.94c0-2.155-0.487-3.966-1.477-5.418h4.382L32.5,13.426z M21.067,29.444
	c-1.036,1.204-2.352,1.797-3.936,1.797c-1.689,0-3.074-0.684-4.167-2.076c-1.428-1.829-2.146-4.408-2.146-7.732
	c0-2.566,0.526-4.475,1.579-5.715c1.054-1.237,2.351-1.854,3.902-1.854c1.678,0,3.053,0.697,4.138,2.08
	c1.444,1.889,2.183,4.513,2.183,7.861C22.621,26.37,22.088,28.239,21.067,29.444z"/>
</svg>
